<?xml version="1.0" encoding="UTF-8"?>
<!-- Generator: Adobe Illustrator 19.2.1, SVG Export Plug-In . SVG Version: 6.00 Build 0)  -->
<svg id="icons" width="48.014px" height="38.064px" enable-background="new 0 0 48.014 38.064" version="1.1" viewBox="0 0 48.014 38.064" xml:space="preserve" xmlns="http://www.w3.org/2000/svg">
<g id="Icon_65_" fill="none" stroke="#400d51" stroke-miterlimit="10">
	<path d="m45.162 36.064h-42.295c-0.641 0-0.852-1.026-0.852-1.669v-31.662c0-0.266-0.066-0.513 0.085-0.71 0.055-0.073 0.042 0.111 0.113 0.052 0.2-0.163 0.377-0.011 0.654-0.011h42.296c0.641 0 0.852 0.026 0.852 0.669v31.663c-1e-3 0.643-0.212 1.668-0.853 1.668z" stroke-width="4"/><g stroke-width="4.1039">
	<path d="m1.943 2.023 17.338 16.97c2.719 2.564 7.064 2.546 9.76-0.04l17.119-16.812"/>
	
		<line x1="46.16" x2="32.075" y1="34.987" y2="15.974"/>
	
		<line x1="1.869" x2="16.246" y1="34.987" y2="15.974"/>
</g></g>
</svg>
