<?xml version="1.0" encoding="UTF-8"?>
<!-- Generator: Adobe Illustrator 21.1.0, SVG Export Plug-In . SVG Version: 6.00 Build 0)  -->
<svg width="64.143px" height="47.663px" enable-background="new 0 0 64.143 47.663" version="1.1" viewBox="0 0 64.143 47.663" xml:space="preserve" xmlns="http://www.w3.org/2000/svg">

<g id="_x31_" fill="#fcca46" stroke="#fcca46">
	<path d="m63.878 23.285-10.455-21.571c-0.504-1.041-1.647-1.714-2.909-1.714h-47.658c-1.577 0-2.856 1.279-2.856 2.856v42.723c0 1.151 0.933 2.084 2.084 2.084h59.862c1.213 0 2.197-0.984 2.197-2.197v-21.039c0-0.393-0.09-0.782-0.265-1.142zm-20.849-20.785h7.485c0.333 0 0.588 0.157 0.66 0.305l10.455 21.571c9e-3 0.02 0.014 0.037 0.014 0.051v8.82h-18.614v-30.747zm-40.529 0.356c0-0.196 0.16-0.356 0.356-0.356h37.541v30.747h-37.897v-30.391zm37.896 42.306h-37.896v-9.279h37.896v9.279zm21.247 1e-3h-18.614v-9.279h18.614v9.279z"/>
	<rect x="5.696" y="5.497" width="31.505" height="24.753"/><g stroke-miterlimit="10" stroke-width="1.5">
	<line x1="25.433" x2="34.965" y1="41.705" y2="41.705"/>
	<line x1="5.696" x2="5.696" y1="35.747" y2="47.663"/>
	<line x1="9.185" x2="9.185" y1="35.747" y2="47.663"/>
</g></g>












</svg>
