<?xml version="1.0" encoding="UTF-8"?>
<!-- Generator: Adobe Illustrator 21.1.0, SVG Export Plug-In . SVG Version: 6.00 Build 0)  -->
<svg width="63.867px" height="30.207px" enable-background="new 0 0 63.867 30.207" version="1.1" viewBox="0 0 63.867 30.207" xml:space="preserve" xmlns="http://www.w3.org/2000/svg">













<g fill="#233d4d" stroke="#fcca46">
	<path d="m49.195 3.363c6.712 0 12.172 5.46 12.172 12.172s-5.46 12.172-12.172 12.172c-4.761 0-9.112-2.811-11.083-7.162-0.405-0.894-1.296-1.468-2.277-1.468h-7.803c-0.982 0-1.872 0.574-2.277 1.468-1.971 4.351-6.321 7.162-11.083 7.162-6.712 0-12.172-5.46-12.172-12.172s5.46-12.172 12.172-12.172h34.523m0-2.5h-34.523c-8.103 0-14.672 6.569-14.672 14.672s6.569 14.672 14.672 14.672c5.947 0 11.056-3.545 13.36-8.631h7.803c2.304 5.086 7.413 8.631 13.36 8.631 8.103 0 14.672-6.569 14.672-14.672s-6.569-14.672-14.672-14.672z"/>
	
		<circle cx="14.672" cy="15.535" r="6.905" stroke-linejoin="round" stroke-miterlimit="10" stroke-width="1.5"/>
	<path d="m49.195 6.041c-5.243 0-9.494 4.25-9.494 9.494s4.25 9.494 9.494 9.494c5.243 0 9.494-4.25 9.494-9.494s-4.251-9.494-9.494-9.494zm-4.316 11.22c-0.953 0-1.726-0.773-1.726-1.726s0.773-1.726 1.726-1.726 1.726 0.773 1.726 1.726-0.772 1.726-1.726 1.726zm4.316 4.316c-0.953 0-1.726-0.773-1.726-1.726s0.773-1.726 1.726-1.726 1.726 0.773 1.726 1.726-0.773 1.726-1.726 1.726zm0-8.631c-0.953 0-1.726-0.773-1.726-1.726s0.773-1.726 1.726-1.726 1.726 0.773 1.726 1.726-0.773 1.726-1.726 1.726zm4.315 4.315c-0.953 0-1.726-0.773-1.726-1.726s0.773-1.726 1.726-1.726 1.726 0.773 1.726 1.726-0.773 1.726-1.726 1.726z"/>
	<polygon points="15.751 14.411 15.751 12.083 13.593 12.083 13.593 14.411 11.112 14.411 11.112 16.569 13.593 16.569 13.593 18.987 15.751 18.987 15.751 16.569 18.125 16.569 18.125 14.411"/>
	<path d="m32.112 16.145c-0.337-0.337-0.337-0.884 0-1.221l2.158-2.158c0.337-0.337 0.884-0.337 1.221 0s0.337 0.884 0 1.221l-2.158 2.158c-0.337 0.337-0.884 0.337-1.221 0z"/>
	<path d="m27.008 16.145c-0.337-0.337-0.337-0.884 0-1.221l2.158-2.158c0.337-0.337 0.884-0.337 1.221 0s0.337 0.884 0 1.221l-2.158 2.158c-0.338 0.337-0.884 0.337-1.221 0z"/>
	<path d="m21.577 0h-7.768c-0.953 0-1.726 0.773-1.726 1.726h11.22c0-0.953-0.773-1.726-1.726-1.726z"/>
	<path d="m50.058 0h-7.768c-0.953 0-1.726 0.773-1.726 1.726h11.22c0-0.953-0.773-1.726-1.726-1.726z"/>
</g>
</svg>
