<?xml version="1.0" encoding="UTF-8"?>
<!-- Created with Inkscape (http://www.inkscape.org/) -->
<svg width="210mm" height="297mm" version="1.1" viewBox="0 0 210 297" xmlns="http://www.w3.org/2000/svg">
 <g transform="matrix(.26458 0 0 .26458 77.171 83.729)">
  <path d="m0 0h96v96h-96z" fill="none"/>
  <path d="m472.26 74.9-316.26-92.774 33.247-10.214c8.92-2.5534 13.785-11.916 11.353-21.279-2.4327-9.3626-11.353-14.469-20.273-11.916l-84.335 25.534-85.146-24.683c-8.92-2.5534-17.84 2.5534-20.273 11.916-2.4327 9.3626 2.4327 18.725 11.353 21.279l33.247 10.214-315.44 91.923c-7.2982 1.7023-12.975 8.5114-12.975 17.023 0 9.3626 7.2982 17.023 16.218 17.023h48.655v51.068c0 80.007 61.629 144.69 137.85 144.69 76.226 0 137.85-64.687 137.85-144.69v-8.5114l48.655-38.301 48.655 38.301v8.5114c0 80.007 61.629 144.69 137.85 144.69 76.226 0 137.85-64.687 137.85-144.69v-51.068h48.655c8.92 0 16.218-7.6603 16.218-17.023 0-8.5114-5.6764-15.321-12.975-17.023zm-265.17 162.57c-7.2982-7.6603-13.785-17.023-18.651-27.237l199.48-66.389v16.172c0 5.958-0.81092 11.916-1.6218 17.023zm-30.004-74.049 162.18-54.473h48.655v17.023l-205.16 68.942c-3.2436-10.214-4.8655-20.427-5.6764-31.492zm0-17.874v-36.599h109.47zm-343.02 91.923c-7.2982-7.6603-13.785-17.023-18.651-27.237l199.48-66.389v16.172c0 5.958-0.8109 11.916-1.6218 17.023zm180.83-111.5-205.16 68.942c-3.2436-10.214-4.8655-20.427-4.8655-31.492l161.37-54.473h48.655zm-210.84 19.576v-36.599h109.47zm105.42 125.12c-22.706 0-42.978-7.6603-60.818-20.427l159.75-53.622c-13.785 43.408-53.52 74.049-98.931 74.049zm196.24-192.36c-5.6764-4.2557-13.785-4.2557-19.462 0l-38.924 30.641v-17.023c0-9.3626-7.2982-17.023-16.218-17.023h-190.56l255.44-74.9 255.44 74.9h-190.56c-8.92 0-16.218 7.6603-16.218 17.023v17.023zm176.78 192.36c-22.706 0-42.978-7.6603-60.818-20.427l159.75-53.622c-13.786 43.408-53.52 74.049-98.931 74.049z" fill="#233d4d"/>
 </g>
</svg>
